<?xml version="1.0" encoding="utf-8"?>
<!-- Generator: Adobe Illustrator 16.0.4, SVG Export Plug-In . SVG Version: 6.00 Build 0)  -->
<!DOCTYPE svg PUBLIC "-//W3C//DTD SVG 1.1//EN" "http://www.w3.org/Graphics/SVG/1.1/DTD/svg11.dtd">
<svg version="1.1" id="Layer_1" xmlns="http://www.w3.org/2000/svg" xmlns:xlink="http://www.w3.org/1999/xlink" x="0px" y="0px"
	 width="245.988px" height="349.483px" viewBox="0 0 245.988 349.483" enable-background="new 0 0 245.988 349.483"
	 xml:space="preserve">
<path fill-rule="evenodd" clip-rule="evenodd" d="M163.28,179.238l-0.242,0.412l0.426,0.039L163.28,179.238z M128.176,276.577
	l0.275-0.42l-0.479-0.053L128.176,276.577z M69.747,233.237h-0.853c0.117,0.145,0.234,0.287,0.354,0.438
	C69.393,233.551,69.531,233.428,69.747,233.237z M145.719,189.994l-0.269,0.383l0.452,0.053L145.719,189.994z M120.637,207.648
	c-0.137-0.082-0.308-0.256-0.398-0.221c-0.172,0.066-0.303,0.248-0.447,0.379c0.269,0.084,0.544,0.178,0.812,0.262
	C120.617,207.925,120.624,207.789,120.637,207.648z M119.431,269.653c-0.131-0.158-0.262-0.316-0.393-0.471
	c-0.027,0.287-0.054,0.574-0.072,0.863C119.122,269.915,119.272,269.784,119.431,269.653z M121.969,238.6
	c-0.125-0.131-0.243-0.363-0.368-0.363c-0.131-0.006-0.269,0.211-0.406,0.328c0.189,0.131,0.379,0.264,0.571,0.402
	C121.831,238.84,121.903,238.723,121.969,238.6z M123.193,204.863c-0.145-0.066-0.321-0.221-0.419-0.184
	c-0.177,0.064-0.308,0.256-0.459,0.393c0.296,0.072,0.589,0.15,0.885,0.223C123.193,205.152,123.193,205.007,123.193,204.863z
	 M62.901,203.63c-0.124-0.139-0.241-0.275-0.365-0.404c-0.132,0.121-0.257,0.254-0.388,0.385c0.191,0.131,0.373,0.268,0.557,0.4
	C62.771,203.886,62.836,203.755,62.901,203.63z M111.223,249.508c-0.131-0.145-0.255-0.406-0.399-0.412
	c-0.144-0.008-0.308,0.223-0.466,0.346c0.131,0.139,0.256,0.387,0.4,0.398C110.908,249.85,111.073,249.631,111.223,249.508z
	 M202.018,194.826c0.164-0.123,0.321-0.248,0.479-0.373c-0.138-0.15-0.263-0.4-0.406-0.414c-0.145-0.02-0.314,0.217-0.473,0.342
	C201.755,194.525,201.887,194.675,202.018,194.826z M116.566,258.79c-0.117-0.139-0.244-0.268-0.361-0.404
	c-0.02,0.254-0.031,0.51-0.053,0.773C116.291,259.034,116.428,258.907,116.566,258.79z M52.223,198.431
	c-0.367,0.014-0.629,0.027-0.897,0.041c0.131,0.145,0.261,0.281,0.393,0.426C51.855,198.773,51.993,198.648,52.223,198.431z
	 M140.127,201.134l0.367,0.26l0.059-0.398L140.127,201.134z M117.581,213.615c0.145-0.119,0.288-0.234,0.427-0.361
	c-0.124-0.131-0.248-0.27-0.373-0.406c-0.131,0.125-0.354,0.238-0.367,0.367C117.254,213.339,117.471,213.484,117.581,213.615z
	 M172.95,209.275c-0.118-0.125-0.223-0.334-0.354-0.348c-0.132-0.02-0.282,0.156-0.427,0.25c0.118,0.117,0.223,0.32,0.354,0.334
	C172.655,209.525,172.806,209.359,172.95,209.275z M172.683,174.008l-0.237,0.333l0.38,0.059L172.683,174.008z M124.366,293.461
	l-0.248,0.383l0.413,0.051L124.366,293.461z M131.008,292.022l-0.263,0.457l0.446,0.047L131.008,292.022z M161.721,207.3
	c0.039,0.395,0.065,0.65,0.085,0.912c0.171-0.125,0.341-0.25,0.512-0.373C162.166,207.703,162.009,207.566,161.721,207.3z
	 M181.983,171.089c-0.15,0.138-0.308,0.275-0.465,0.413c0.295,0.02,0.59,0.039,0.885,0.065
	C182.266,171.403,182.128,171.246,181.983,171.089z M122.112,283.014c-0.144-0.166-0.281-0.447-0.439-0.461
	c-0.15-0.006-0.32,0.258-0.485,0.402c0.145,0.154,0.288,0.418,0.446,0.43C121.783,283.399,121.954,283.145,122.112,283.014z
	 M123.423,222.598h-0.911c0.131,0.15,0.255,0.398,0.406,0.42C123.042,223.036,123.207,222.786,123.423,222.598z M118.979,279.848
	c-0.133,0.123-0.264,0.246-0.401,0.367c0.244,0.023,0.492,0.043,0.735,0.064C119.2,280.135,119.09,279.991,118.979,279.848z
	 M128.799,220.832c-0.564,0.465-0.826,0.682-1.082,0.898c0.288,0.348,0.584,0.696,0.872,1.044
	C128.647,222.228,128.707,221.685,128.799,220.832z M142.31,207.412c-0.138-0.365-0.282-0.732-0.42-1.1
	c-0.15,0.084-0.419,0.156-0.433,0.254c-0.039,0.389,0.007,0.781,0.021,1.168C141.752,207.63,142.027,207.517,142.31,207.412z
	 M122.112,229.815c-0.484-0.512-0.807-0.971-0.904-0.932c-0.368,0.164-0.669,0.492-0.99,0.76
	C120.748,229.696,121.273,229.743,122.112,229.815z M134.103,207.406c-0.531,0.473-0.997,0.795-0.964,0.867
	c0.17,0.348,0.484,0.623,0.747,0.922C133.944,208.705,134.004,208.212,134.103,207.406z M67.045,247.28
	c-0.439-0.557-0.649-0.814-0.846-1.076c-0.314,0.303-0.63,0.598-0.943,0.896C65.766,247.149,66.271,247.202,67.045,247.28z
	 M184.586,168.519l-0.026,0.531c0.551,0.033,1.102,0.067,1.652,0.105c0.014-0.188,0.02-0.374,0.033-0.557
	C185.694,168.571,185.144,168.547,184.586,168.519z M113.295,209.8c2.006-0.25,2.49-0.311,2.969-0.375
	c-0.097-0.309-0.195-0.609-0.293-0.918C115.544,208.716,115.11,208.927,113.295,209.8z M126.767,215.089
	c1.973-0.211,2.484-0.262,2.989-0.32c-0.111-0.297-0.223-0.598-0.335-0.898C128.982,214.074,128.543,214.279,126.767,215.089z
	 M120.579,260.903c-0.244,0.025-0.48,0.057-0.723,0.084c0.072,0.66,0.138,1.324,0.217,1.984c0.262-0.031,0.53-0.064,0.806-0.096
	C120.774,262.217,120.677,261.557,120.579,260.903z M117.786,288.223c-0.243,0.035-0.485,0.066-0.729,0.1
	c0.086,0.578,0.165,1.152,0.243,1.73c0.242-0.031,0.485-0.064,0.727-0.1C117.949,289.379,117.863,288.803,117.786,288.223z
	 M187.51,172.755c-0.419-0.144-0.78-0.323-1.146-0.375c-0.132-0.02-0.309,0.249-0.468,0.387c0.29,0.185,0.565,0.485,0.86,0.505
	C186.985,173.292,187.241,172.958,187.51,172.755z M132.417,191.869c-0.02-0.174-0.039-0.359-0.059-0.537
	c-0.492,0.072-0.99,0.139-1.481,0.203c0.032,0.145,0.065,0.414,0.092,0.414C131.454,191.941,131.933,191.904,132.417,191.869z
	 M140.526,277.465c-0.242,0.035-0.479,0.066-0.721,0.107c0.092,0.568,0.177,1.139,0.269,1.717l0.675-0.1
	C140.677,278.616,140.605,278.038,140.526,277.465z M131.147,269.792c0.005-0.172,0.011-0.342,0.024-0.52
	c-0.643-0.051-1.292-0.104-1.934-0.158l-0.033,0.678H131.147z M133.335,272.657h0.544v-1.996h-0.544V272.657z M137.498,275.172
	h0.524v-1.646c-0.177,0-0.348,0-0.524,0V275.172z M157.918,157.066c-0.025-0.195-0.046-0.387-0.065-0.583
	c-0.557,0.085-1.107,0.172-1.665,0.257c0.085,0.143,0.171,0.407,0.256,0.407C156.935,157.16,157.427,157.099,157.918,157.066z
	 M113.15,287.471c0.256,0.008,0.512,0.014,0.768,0.02c0.059-1.127,0.11-2.254,0.169-3.385c-0.313-0.006-0.622-0.02-0.937-0.025
	V287.471z M107.439,229.985c0.329,0.309,0.65,0.609,0.979,0.918c0.472-0.578,0.943-1.154,1.414-1.73
	c-0.216-0.225-0.432-0.447-0.653-0.664C108.602,229,108.017,229.493,107.439,229.985z M127.612,208.279
	c-0.321-0.27-0.649-0.531-0.977-0.801c-0.453,0.557-0.898,1.121-1.351,1.686c0.203,0.203,0.408,0.406,0.609,0.609
	C126.472,209.275,127.042,208.777,127.612,208.279z M66.043,240.061c2.471,0.465,2.471,0.465,1.678-1.926
	C67.117,238.823,66.618,239.399,66.043,240.061z M116.408,266.94c-0.34-0.244-0.688-0.48-1.029-0.721
	c-0.242,0.607-0.484,1.213-0.729,1.822c0.178,0.078,0.361,0.164,0.539,0.246C115.596,267.838,116.002,267.383,116.408,266.94z
	 M108.994,247.333c-0.504-0.441-1.009-0.875-1.514-1.312c-0.465,0.689-0.932,1.369-1.396,2.057c0.419,0.377,0.839,0.75,1.258,1.121
	C107.893,248.577,108.443,247.954,108.994,247.333z M131.578,219.638c0.846,0.322,1.383,0.527,1.914,0.73
	c0.172-0.564,0.413-1.121,0.466-1.701c0.006-0.115-0.787-0.523-1.003-0.404C132.496,218.511,132.175,219.009,131.578,219.638z
	 M122.25,214.074c0.499-0.838,0.864-1.258,0.97-1.738c0.053-0.215-0.505-0.832-0.629-0.785c-0.485,0.15-1.166,0.426-1.278,0.799
	C121.208,212.689,121.759,213.22,122.25,214.074z M198.995,177.48c-0.38,0.145-0.76,0.289-1.139,0.435
	c0.496,1.067,0.988,2.142,1.486,3.219c0.295-0.126,0.59-0.244,0.892-0.362C199.821,179.678,199.408,178.582,198.995,177.48z
	 M103.664,275.862c0.072,1.23,0.126,2.227,0.198,3.5C106.372,277.885,105.979,276.917,103.664,275.862z M66.075,210.808
	c1.351-1.436,1.915-2.031,2.675-2.846c-1.082-0.838-1.664-1.291-2.675-2.062V210.808z M136.108,194.14
	c-2.819,0.326-2.819,0.326-3.77,2.633C133.683,195.83,134.613,195.179,136.108,194.14z M115.118,252.274
	c-0.348-0.283-0.702-0.57-1.049-0.857c-0.722,0.701-1.444,1.402-2.157,2.104c0.248,0.256,0.497,0.516,0.746,0.779
	C113.479,253.631,114.297,252.956,115.118,252.274z M138.265,194.544c3.114,0.125,3.114,0.125,3.54-2.465
	C140.533,192.964,139.608,193.607,138.265,194.544z M66.227,214.632c3.486,0.883,4.642,0.562,4.784-2.467
	C69.432,212.978,68.461,213.484,66.227,214.632z M113.801,274.215l-0.625-1.475c-0.922,0.451-1.867,0.885-2.759,1.404
	c-0.065,0.039,0.327,1.049,0.354,1.041C111.793,274.905,112.797,274.557,113.801,274.215z M72.881,218.833
	c-0.492-0.23-0.984-0.453-1.477-0.676l-1.299,3.375c0.408,0.178,0.814,0.348,1.221,0.525
	C71.845,220.982,72.361,219.908,72.881,218.833z M111.996,217.222c-2.398,2.098-2.666,3.361,0,5.151V217.222z M116.344,241.694
	c-3.75,0.977-3.908,2.164-2.721,4.393C114.475,244.704,115.059,243.758,116.344,241.694z M118.42,233.907
	c-0.34-0.467-0.688-0.926-1.027-1.391c-0.893,0.674-1.783,1.355-2.676,2.033c0.198,0.307,0.394,0.615,0.598,0.924
	C116.35,234.948,117.385,234.43,118.42,233.907z M153.618,164.409c0.144-0.452,0.288-0.905,0.433-1.357
	c-1.423-0.472-2.846-0.942-4.274-1.415c-0.131,0.398-0.262,0.798-0.4,1.191C150.792,163.353,152.202,163.877,153.618,164.409z
	 M108.13,283.217c0.517,0.037,1.042,0.072,1.565,0.109c0.079-1.152,0.158-2.314,0.262-3.814
	C106.93,280.442,107.48,281.821,108.13,283.217z M126.714,200.05c-2.386-3.441-3.462-2.936-4.569,0H126.714z M65.439,256.45
	c0.072-1.113,0.145-2.223,0.243-3.729C63.434,254.292,63.434,254.292,65.439,256.45z M72.623,225.573
	c-0.354-0.354-0.701-0.709-1.054-1.062c-0.886,0.662-1.763,1.324-2.937,2.211c0.713,0.746,1.146,1.199,1.887,1.973
	C71.398,227.395,72.008,226.483,72.623,225.573z M138.685,213.607c-1.278-1.193-1.855-1.73-2.865-2.672
	c-0.518,1.545-0.872,2.6-1.573,4.697C136.154,214.763,137.013,214.369,138.685,213.607z M113.386,281.879
	c2.308-1.287,2.86-2.814,1.325-5.383C112.16,278.168,112.521,279.899,113.386,281.879z M118.657,218.787
	c1.915,0.467,3.77,1.357,4.877-1.402C121.227,215.785,119.863,216.675,118.657,218.787z M158.908,302.475
	c1.469,0,2.95-0.131,4.398,0.041c1.357,0.162,2.682,0.648,5.337,1.338C164.408,301.061,164.408,301.061,158.908,302.475z
	 M68.455,268.368c-1.941,3.037-0.485,4.787,1.375,7.867C69.857,272.917,70.565,270.899,68.455,268.368z M132.883,200.529
	c-4.124,1.947-4.124,1.947-2.249,5.244C131.395,204.005,132.063,202.451,132.883,200.529z M153.435,210.683
	c2.419,0.787,4.483,0.742,6.208-1.842C157.001,208.345,154.902,208.279,153.435,210.683z M66.075,266.993
	c1.651-2.924,1.585-4.615-0.44-6.426C64.083,262.737,64.482,264.35,66.075,266.993z M102.799,238.194
	c-2.406,3.127-1.881,5.369-1.743,8.182C103.718,244.186,104.051,242.053,102.799,238.194z M154.483,156.673h-4.11
	c-0.111,3.207,1.213,3.822,3.782,3.055C154.261,158.784,154.346,157.945,154.483,156.673z M94.828,287.377
	c-1.488-1.695-2.38-2.721-3.658-4.182c-1.081,1.514-1.816,2.539-2.989,4.182H94.828z M80.302,283.512
	c1.716,2.404,3.165,3.408,5.649,2.104C84.924,282.907,83.625,281.604,80.302,283.512z M111.971,267.79
	c-0.268-0.334-0.532-0.66-0.8-0.994c-1.174,0.498-2.347,0.994-3.659,1.553c0.119,1.605,0.223,2.971,0.426,5.73
	C109.781,271.208,110.875,269.495,111.971,267.79z M154.994,204.187c2.372-0.504,5.383,1.402,7.631-2.705
	C159.498,202.496,156.686,200.876,154.994,204.187z M76.172,283.217c0-5.691,0-5.691-3.783-5.352
	c0.229,0.867,0.255,1.822,0.715,2.48C73.686,281.198,74.617,281.799,76.172,283.217z M107.677,241.385
	c2.294-2.734,3.888-4.42,3.71-7.111c-3.455-0.492-3.56,2.271-4.516,3.957C106.613,238.692,107.198,239.627,107.677,241.385z
	 M119.929,225.159c-1.895-0.518-2.956-0.648-3.86-1.107c-0.662-0.332-1.108-1.088-1.646-1.656c-0.309,0.176-0.61,0.354-0.919,0.529
	c0.407,1.861,0.807,3.723,1.339,6.189C116.658,227.704,117.982,226.674,119.929,225.159z M203.381,182.902
	c-2.458,3.467-2.354,5.467-1.658,7.781h3.959C204.961,188.244,204.378,186.285,203.381,182.902z M168.761,210.371
	c-3.843,0.949-8.181,0.529-11.708,4.457C162.048,214.892,165.68,213.367,168.761,210.371z M104.262,271.536
	c0.779-1.766,1.292-2.932,1.867-4.236c-1.448-1.283-2.799-2.477-4.516-4.004c-0.84,1.912-1.488,3.387-2.229,5.072
	C101.081,269.469,102.504,270.393,104.262,271.536z M108.044,263.961c0.97-2.189,1.572-3.551,1.815-4.096
	c-0.656-2.857-1.114-4.877-1.711-7.486c-2.17,2.221-4.11,4.117-5.898,6.135c-0.252,0.281,0.195,1.186,0.326,1.85
	c1.527-0.779,2.916-1.494,4.543-2.326C107.436,260.088,107.67,261.563,108.044,263.961z M181.951,151.843
	c0.104,9.523,0.669,10.507,5.592,10.482C186.284,156.872,185.313,154.942,181.951,151.843z M187.241,252.254
	c-1.068-1.336-1.573-2.637-2.38-2.859c-3.881-1.074-7.08-4.129-11.426-3.918C177.336,248.61,180.47,253.184,187.241,252.254z
	 M148.269,303.297c1.546-0.828,3.73-0.781,4.418-2.984c-5.965-2.562-11.76-1.926-17.883-1.861c-0.558,1.188-1.114,2.381-1.573,3.357
	h13.098C146.519,301.954,147.39,302.625,148.269,303.297z M173.363,224.768c-0.649-2.156-1.337-4.44-2.163-7.181
	c-2.013,0.242-3.861,0.467-5.782,0.693c-0.111,4.001-1.226,7.601,1.724,10.347C170.354,229.02,171.751,226.944,173.363,224.768z
	 M170.643,242.743c-4.483-3.375-7.008-7.934-8.968-12.928c-1.043-2.66-2.557-5.146-3.934-7.665
	c-0.099-0.176-0.812-0.027-1.259-0.027v4.616c0.957,0.773,1.606,1.299,2.445,1.975c-0.485,1.199-0.885,2.203-1.245,3.096
	c0.747,0.752,1.56,1.408,2.17,2.213c1.967,2.604,3.828,5.279,5.788,7.889C166.866,243.534,168.427,243.995,170.643,242.743z
	 M173.809,181.263c-0.733,10.822,3.789,14.383,16.153,13.457c4.49-2.451,5.041-7.053,3.337-10.439
	c-3.605-5.961-8.868-7.147-16.134-6.309C175.946,178.588,174.648,179.505,173.809,181.263z M204.338,214.572
	c0.197-2.545,0.381-4.871,0.558-7.199c-1.613,0.932-2.005,2.348-2.911,3.238c-0.53,0.527-1.881,0.217-2.864,0.283
	c-0.321-2.328-0.57-4.145-0.865-6.301c-0.977,1.174-1.613,1.936-2.452,2.943c-0.761-1.18-1.226-1.895-1.685-2.609
	c-0.524,0.637-1.049,1.266-1.226,1.482c-4.078-0.248-7.802-0.479-11.683-0.709c-0.769-0.832-1.607-1.742-2.465-2.672
	c-1.447,0.332-2.701,0.615-4.202,0.955c-0.682-1.088-1.344-2.154-1.992-3.197c-1.712-0.342-3.409-0.678-5.238-1.037
	c-1.029-3.127-3.18-5.074-5.939-6.602c0.131,1.566,0.669,2.871,1.266,4.156c0.636,1.379,1.317,2.732,2.032,4.189
	c4.268,2.303,8.659,4.668,12.921,6.969c5.212-1.592,7.375-1.389,11.643,0.643c2.563,1.225,5.198,2.326,7.873,3.291
	C199.534,213.273,202.052,213.896,204.338,214.572z M147.318,248.084c-5.874,2.438-5.979,2.57-6.739,8.295
	c-4.34,2.982-4.61,3.684-2.354,7.834c0.832,1.52,1.938,2.936,3.113,4.219c2.092,2.289,4.327,4.447,6.733,6.885
	c-0.42,4.949-0.846,9.873-1.278,14.908c2.721-0.623,5.027-1.162,7.165-1.654c2.772-8.514-0.151-15.83-3.441-22.531
	c0.812-4.248,1.646-7.857,1.809-11.793c0.151-3.521,3.199-6.908,5.048-10.516c-2.34-2.373-4.877-4.424-6.713-6.98
	c-1.665-2.314-3.205-1.619-5.684-0.957C145.784,240.034,146.551,244.061,147.318,248.084z M159.773,160.246
	c-0.288-0.228-0.57-0.465-0.853-0.695c0.336,0.177,0.676,0.354,1.01,0.533c0.387,3.009,1.211,5.695,5.277,6.03
	C163.398,164.16,161.583,162.206,159.773,160.246z M161.622,299.69 M127.593,301.073c1.462,0.035,3.244,0.361,1.835-2.562
	c-0.675,1.021-1.218,1.836-1.757,2.648c-0.8,0.105-1.6,0.215-2.397,0.322c0.136,0.307,0.267,0.609,0.404,0.918
	C126.314,301.959,126.951,301.512,127.593,301.073z M189.3,170.977c-0.125-0.341-0.249-0.687-0.38-1.027
	c-0.184,0.169-0.374,0.341-0.564,0.51c0.367,0.12,0.734,0.25,1.095,0.367c0.61,0.419,1.22,0.826,1.829,1.246
	c0.125-0.289,0.243-0.57,0.367-0.853C190.86,171.143,190.08,171.064,189.3,170.977z M100.727,252.727
	c0.381-0.637,0.77-1.266,1.148-1.902c-0.341-0.1-0.682-0.195-1.029-0.303v2.328l-1.351,0.709c0.145,0.15,0.288,0.295,0.433,0.439
	C100.19,253.579,100.458,253.153,100.727,252.727z M151.71,166.972c-0.189-0.36-0.38-0.714-0.184-0.341
	c-0.406-0.157-0.02-0.006,0.374,0.145c0.616,0.382,1.232,0.76,1.849,1.142c0.099-0.231,0.19-0.46,0.288-0.695
	C153.257,167.144,152.483,167.057,151.71,166.972z M57.849,204.425c-6.472-2.242-12.976-4.375-19.379-6.768
	c-2.235-0.832-4.38-2.104-6.286-3.547c-1.764-1.33-3.057-3.262-4.722-4.752c-4.915-4.398-5.544-10.161-4.28-15.943
	c0.676-3.112,0.591-7.257,4.865-8.999c0,0.759,0.248,1.532-0.041,1.932c-3.047,4.353-1.893,9.026-0.529,13.36
	c1.495,4.746,4.759,8.665,9.242,10.901c4.498,2.248,8.891,4.471,14.352,4.818c14.369,0.918,23.908,11.021,26.346,24.754
	c0.773,4.36-0.085,9.446-1.612,13.688c-2.269,6.342-3.384,12.881-4.392,19.379c-1.338,8.594,1.678,16.086,8.344,22.014
	c4.779,4.242,10.247,4.922,16.633,3.777c0.393-1.396,0.84-2.979,1.455-5.172c-1.936,0.754-3.107,1.203-5.166,2.006
	c1.166-2.689,2.059-4.746,3.041-7.023c-1.128-0.832-2.078-1.527-3.212-2.357c0.616-1.76,1.193-3.396,1.915-5.455
	c-2.781-2.15-1.352-4.859-0.196-7.473c-0.925-0.6-1.634-1.057-2.518-1.629c1.238-2.057,2.478-4.123,3.919-6.533
	c-1.414-0.475-2.562-0.852-3.866-1.285c1.389-3.127,5.623-4.434,5.539-8.738c-1.03,0.34-1.843,0.607-2.991,0.99
	c-0.956-5.094,5.154-4.963,6.131-9.115c-0.064-0.168-0.381-0.941-0.872-2.17c1.2-1.311,2.616-2.858,4.36-4.767
	c-1.148-0.635-1.836-1.021-2.979-1.652c1.738-1.639,3.377-3.186,5.338-5.041c-0.806-0.529-1.448-0.947-2.19-1.434
	c0.048-0.205,0.014-0.684,0.203-0.801c2.025-1.238,3.469-2.207,3.909-5.289c0.419-2.926,3.237-5.945,5.747-8.02
	c2.833-2.338,5.809-4.443,8.518-7.025c3.663-3.488,8.029-6.235,12.055-9.343c0.648-0.498,1.095-1.245,1.835-2.109
	c3.442-0.773,7.264-1.634,10.765-2.42c0.669-1.121,1.121-1.882,1.6-2.682c-0.15-0.334-0.236-0.761-0.492-1.036
	c-3.795-4.064-3.662-9.335-4.28-14.324c-0.426-3.481,1.724-5.839,4.347-7.847c2.347-0.419,4.727-0.839,8.246-1.462
	c5.638,0.107,8.312,5.677,12.146,10.417c-0.995-7.113,1.673-11.551,8.195-13.15c3.37,1.038,6.529,2.008,10.142,3.114
	c5.002,5.067,4.327,13.585,10.018,19.596c0.388-1.352,0.871-2.217,0.839-3.057c-0.164-3.722-0.473-7.439-0.728-11.157
	c0.452-0.058,0.902-0.112,1.351-0.17c0.701,3.665,1.396,7.317,2.098,10.967c2.183-1.849,1.481-6.436,3.101-7.814
	c1.56-0.754-0.459-1.049,3.107-2.255c-1.79,5.244-3.462,10.137-5.376,15.747c2.616-0.785,3.549-2.917,5.159-4.076
	c1.495-1.077,2.144-4.064,5.729-2.434c-2.293,2.703-4.325,5.095-7.288,8.576c3.828-1.259,6.438-2.125,9.27-3.062
	c0.668,0.798,1.324,1.579,2.432,2.903c-2.426,0.76-4.137,1.298-5.86,1.837c0.072,0.295,0.138,0.595,0.21,0.891
	c0.817-0.105,1.685-0.427,2.458-0.27c0.773,0.152,1.455,0.775,3.067,1.7c-3.355,1.06-5.893,1.866-8.437,2.666
	c0.63,4.963,1.239,9.754,1.875,14.77c1.285,0.852,2.825,1.875,4.759,3.166c5.475-2.012,10.981,1.035,17.478,1.902
	c-3.835,1.277-5.698,1.447-9.197,1.074c-2.977-0.328-6.044-2.412-8.791,0.531c3.815,4.701,3.828,4.666,9.905,7.604
	c2.314,1.115,4.55,2.395,6.379,4.732c-3.259-1.139-6.517-2.273-9.774-3.414c-0.145,0.229-0.289,0.465-0.427,0.693
	c2.189,1.732,4.38,3.455,6.569,5.18c-5.9,0.145-9.545-4.412-15.025-5.832c-0.971,2.207-1.986,4.527-2.865,6.541
	c-2.596,1.959-4.818,1.496-7.198,0.32c-2.964-1.461-5.906-2.693-9.413-3.01c-2.892-0.254-5.618-2.432-8.614-3.84
	c-3.271,1.717-5.244,4.49-6.175,7.898c0.413,2.098,0.793,4.048,1.284,6.517c2.256,0.512,4.779,1.391,7.355,1.582
	c4.471,0.332,7.952,2.662,11.302,5.166c1.271,0.955,2.255,2.758,2.642,4.357c0.768,3.195,1.029,6.51,1.521,9.9
	c-3.706,1.65-5.369-0.598-7.034-2.59c-1.986-2.373-3.835-4.859-5.435-6.896c-7.5-0.982-9.762-0.623-15.537,2.348
	c0.78,2.943,3.363,4.457,5.724,4.682c6.378,0.602,9.289,4.514,11.223,10.197c-0.452,1.672-0.964,3.588-1.632,6.064
	c-6.261-1.84-11.558-5.256-16.632-8.994c-2.825-2.076-5.513-3.775-9.439-2.135c-0.157,0.623-0.361,1.447-0.669,2.68h-2.144
	c-1.652,0.754,1.895,2.602-0.42,3.65c-0.491,0.225-0.275,2.033-0.387,3.141h-2.104v5.076c1.79,1.918,3.462,3.721,5.14,5.525
	c-0.21,0.256-0.413,0.51-0.616,0.76c-1.337-0.381-2.675-0.754-4.372-1.232c1.107,2.799,2.792,3.738,5.225,4.039
	c1.573,0.197,2.806,1.324,2.242,3.48c-0.997-0.256-1.954-0.512-3.979-1.035c1.685,2.062,2.812,3.439,4.005,4.908
	c-0.688,0.467-1.356,0.918-2.359,1.6c0.944,1.062,1.855,2.086,3.724,4.178c-2.203-0.467-3.095-0.65-4.53-0.959
	c0.19,1.084,0.348,1.973,0.538,3.016c-0.604,0.514-1.253,1.049-1.79,1.502c4.255,3.389,9.27,3.416,14.436,3.264
	c6.148-0.176,10.993,2.846,15.215,7.055c1.757,1.75,2.308,3.73,1.481,6.176c-2.405,2.91-5.225,0.984-7.842,0.537
	c-3.197,1.154-6.298,2.361-9.465,3.369c-1.238,0.4-2.688,0.701-3.92,0.447c-4.11-0.852-8.306-1.031-12.403-1.691
	c-9.302-1.502-18.472-1.975-27.664,0.439c-1.711,0.451-3.441,0.957-5.192,1.094c-2.438,0.184-4.896,0.045-7.925,0.045
	c-1.055-1.297-2.328-2.852-3.744-4.58c0.23-0.768,0.537-1.785,0.898-2.99c-0.242-0.439-0.438-1.357-0.885-1.502
	c-3.448-1.113-5.566-3.807-7.631-6.457c-2.064-2.637-4.941-3.717-7.684-2.793c-6.908,2.326-13.136-0.602-19.588-1.797
	c-1.199-0.223-2.366-1.158-3.35-1.998c-4.779-4.064-8.778-8.641-11.104-14.684c-2.787-7.225-6.177-14.299-4.735-22.297
	c0.866-4.777,2.328-9.451,3.652-14.139c2.046-7.213,2.785-14.469,0.171-21.63C61.873,211.826,59.801,208.396,57.849,204.425z
	 M214.286,202.371c0.889-0.754,3.188-0.805,6.079-0.1c4.275,1.039,7.651,2.562,9.238,3.816c6.638,5.246,3.968,3.551,1.385,2.633
	C226.665,207.07,218.45,204.058,214.286,202.371z M182.456,184.888c0.465,0.597,0.682,0.879,0.897,1.16
	c0.321-0.321,0.649-0.641,0.978-0.957C183.798,185.033,183.269,184.975,182.456,184.888z M176.313,186.246
	c-0.321-3.441,0.353-5.448,2.359-6.143c3.042-1.371,6.162-0.328,7.532,0.552c3.79,2.366,6.871,7.892,4.064,10.251
	C183.124,195.542,177.008,189.458,176.313,186.246z"/>
<path fill-rule="evenodd" clip-rule="evenodd" d="M134.415,26.397c0.203-0.395,0.406-0.789,0.613-1.184
	c-0.691-0.301-1.449-0.926-2.059-0.804c-0.656,0.125-1.438,0.859-1.66,1.507c-0.133,0.375,0.723,1.559,1.125,1.555
	C133.099,27.463,133.755,26.787,134.415,26.397z M141.97,37.487c-0.441-0.18-0.883-0.36-1.324-0.539
	c-0.863,1.812-1.73,3.625-2.594,5.437c0.449,0.207,0.902,0.414,1.352,0.625C140.259,41.166,141.114,39.326,141.97,37.487z
	 M134.423,103.608c0.055,0,0.105,0,0.156,0V85.534c-0.051,0-0.102,0-0.156,0.003V103.608z M116.387,162.256v0.215h21.739v-0.215
	H116.387z M137.524,282.475c-0.004-0.07-0.004-0.142-0.004-0.215h-21.683c0,0.073,0,0.145,0,0.215H137.524z M137.653,138.502
	c0-0.078,0-0.152,0-0.23h-23.504c0,0.078,0,0.152,0,0.23H137.653z M97.633,281.087c-0.093-2.073-0.023-3.75-0.324-5.354
	c-0.105-0.563-1.101-1.271-1.75-1.336c-0.699-0.074-2.07,0.476-2.105,0.847c-0.156,1.724-0.293,3.618,0.304,5.161
	C93.993,281.01,96.169,280.866,97.633,281.087z M64.344,164.51c-0.98,3.34,0.207,4.375,2.989,4.117
	c1.285-0.117,2.668,0.231,3.855-0.129c0.719-0.218,1.512-1.355,1.594-2.148c0.059-0.551-0.988-1.695-1.621-1.758
	C68.911,164.377,66.63,164.51,64.344,164.51z M208.657,289.237h-0.016c0,0.793,0.059,1.593-0.012,2.382
	c-0.16,1.829,0.438,2.735,2.465,2.75c2.086,0.021,2.531-1.015,2.457-2.776c-0.07-1.684-0.094-3.384-0.023-5.07
	c0.074-1.84-0.98-2.071-2.465-2.071c-1.504-0.003-2.559,0.271-2.418,2.099C208.716,287.444,208.657,288.342,208.657,289.237z
	 M59.153,284.487c-1.863,0-3.176-0.141-4.434,0.066c-0.574,0.094-1.449,0.855-1.476,1.352c-0.145,2.742-0.07,5.492-0.07,8.363
	c1.753,0,3.078,0.176,4.316-0.074c0.637-0.129,1.551-0.993,1.59-1.575C59.251,290.057,59.153,287.479,59.153,284.487z
	 M68.571,281.494c1.394-0.479,3.504-0.554,4.055-1.519c1.765-3.082-0.024-5.738-3.496-5.793c-0.7-0.013-1.403,0.051-2.09-0.035
	c-2.297-0.281-3.149,0.578-3.063,2.988C64.118,281.126,63.969,281.131,68.571,281.494z M75.606,168.655
	c4.645,0,9.008,0.074,13.359-0.09c0.567-0.02,1.485-1.235,1.512-1.93c0.028-0.672-0.859-1.961-1.383-1.98
	c-4.445-0.161-8.898-0.094-13.488-0.094C75.606,165.971,75.606,167.03,75.606,168.655z M98.255,165.928
	c1.183,1.137,1.98,2.578,2.89,2.656c3.336,0.282,6.707,0.11,10.012,0.11v-4.129c-5.555,0-10.918-0.047-16.277,0.07
	c-0.563,0.012-1.532,0.996-1.551,1.555c-0.028,0.801,0.508,2.16,1.058,2.308c0.875,0.231,2.043-0.191,2.93-0.644
	C97.774,167.623,97.891,166.725,98.255,165.928z M111.051,274.467H99.938c-0.109,1.159-0.219,2.141-0.297,3.116
	c-0.082,1.056-0.133,2.11-0.211,3.396c2.192,0,4.176,0,6.161,0c6.339-0.004,6.339-0.004,5.64-6.271
	C111.223,274.626,111.118,274.553,111.051,274.467z M213.505,140.721h-4.844c0,6.301-0.07,12.355,0.102,18.398
	c0.02,0.665,1.418,1.762,2.215,1.797c0.816,0.035,2.398-0.965,2.418-1.547C213.571,153.229,213.505,147.08,213.505,140.721z
	 M83.169,274.26v-0.027c-1.793,0-3.59,0.113-5.371-0.028c-2.508-0.198-2.477,1.396-2.309,3.063c0.156,1.558-0.918,3.854,2.215,3.766
	c3.281-0.09,6.574-0.148,9.851,0c2.356,0.113,3.032-0.786,3.125-3.083c0.118-2.808-0.664-4.108-3.632-3.718
	C85.774,274.401,84.462,274.26,83.169,274.26z M195.415,284.518c0,2.918-0.121,5.401,0.082,7.858
	c0.051,0.649,1.055,1.677,1.699,1.742c2.277,0.228,4.66,0.489,6.863,0.047c4.07-0.808,1.41-4.19,1.926-6.351
	c0.316-1.305,0.77-3.406-1.98-3.317C201.325,284.583,198.638,284.518,195.415,284.518z M61.743,284.561
	c0,2.914-0.117,5.492,0.094,8.047c0.046,0.59,1.199,1.492,1.894,1.547c2.383,0.179,4.813,0.222,7.18-0.071
	c0.75-0.093,2-1.508,1.898-2.14c-0.39-2.45,1.641-5.352-1.218-7.352c-0.071-0.052-0.196-0.027-0.297-0.027
	C68.228,284.561,65.161,284.561,61.743,284.561z M59.137,140.491c-1.687,0-3.07-0.141-4.406,0.062
	c-0.562,0.086-1.441,0.887-1.449,1.375c-0.121,5.895-0.188,11.797,0.023,17.684c0.02,0.515,2.106,1.293,3.243,1.316
	c0.851,0.016,2.46-0.961,2.476-1.531C59.204,153.233,59.137,147.061,59.137,140.491z M192.458,284.803h-14.27
	c-0.086,0.93-0.188,1.608-0.207,2.293c-0.191,7.09-0.188,7.09,6.988,7.098c8.766,0.015,8.766,0.015,7.734-8.832
	C192.692,285.268,192.626,285.182,192.458,284.803z M75.489,284.576c0,2.915-0.117,5.493,0.094,8.043
	c0.047,0.571,1.234,1.469,1.922,1.497c3.589,0.145,7.191,0.171,10.769-0.043c0.82-0.051,2.25-1.25,2.227-1.875
	c-0.09-2.523-0.629-5.028-1.055-7.532c-0.012-0.078-0.555-0.086-0.855-0.086C84.407,284.573,80.219,284.576,75.489,284.576z
	 M213.423,136.893c-0.66-20.481-10.125-36.848-22.859-51.766c2.133,3.996,4.684,7.785,6.895,11.762
	c6.391,11.488,10.785,23.602,11.039,36.941C208.567,137.51,208.853,137.69,213.423,136.893z M102.2,284.6
	c-2.297,0-4.594-0.047-6.891,0.031c-0.617,0.023-1.738,0.402-1.75,0.659c-0.14,2.672-0.156,5.353-0.031,8.024
	c0.016,0.301,1.102,0.781,1.695,0.785c4.692,0.069,9.391,0.133,14.078-0.056c0.719-0.026,1.914-1.308,1.993-2.097
	c0.738-7.332,0.679-7.34-6.696-7.34C103.798,284.608,103.001,284.608,102.2,284.6z M157.587,284.768c0,2.75-0.125,5.144,0.082,7.508
	c0.059,0.668,1.074,1.769,1.68,1.789c4.875,0.14,9.762,0.117,14.641,0.008c0.52-0.012,1.434-0.86,1.461-1.36
	c0.145-2.633,0.066-5.276,0.066-7.944H157.587z M97.411,193.057h0.019c0-6.297,0-12.594-0.004-18.891
	c0-1.425,0.125-2.836-2.031-2.894c-2.058-0.055-2.226,1.117-2.226,2.679c0.019,12.797,0.019,25.594,0.004,38.388
	c0,1.523,0.105,2.773,2.168,2.77c2.16-0.004,2.062-1.43,2.066-2.856C97.416,205.854,97.411,199.455,97.411,193.057z
	 M113.747,284.647c0,2.851-0.153,5.25,0.094,7.604c0.074,0.696,1.265,1.798,1.972,1.817c5.184,0.16,10.379,0.066,15.566,0.105
	c1.844,0.012,2.32-1.134,2.008-2.543c-0.52-2.316,1.516-5.207-1.508-6.957c-0.078-0.048-0.199-0.023-0.297-0.023
	C125.813,284.647,120.041,284.647,113.747,284.647z M155.192,284.639c-6.254,0-11.941,0.03-17.625-0.021
	c-1.938-0.015-2.254,1.263-1.941,2.575c0.543,2.3-1.746,5.211,1.449,6.925c0.082,0.043,0.199,0.028,0.297,0.028
	c5.398-0.008,10.797,0.035,16.188-0.09c0.559-0.017,1.516-1.013,1.559-1.609C155.298,289.987,155.192,287.506,155.192,284.639z
	 M123.805,33.26c-2.722,1.84-5.316,3.293-7.547,5.184c-3.46,2.933-4.613,6.59-3.335,9.187c1.152,2.348,5.437,3.918,9.335,3.418
	c0.297-0.039,0.594-0.098,0.883-0.164c3.821-0.871,4.821-2.598,5.321-6.324C129.087,39.893,125.231,37.534,123.805,33.26z
	 M195.399,140.506v12.692c0,8.316,0,8.316,8.383,7.804c0.098-0.008,0.238,0.035,0.293-0.015c0.676-0.621,1.906-1.246,1.922-1.891
	c0.125-5.473,0.102-10.953-0.102-16.422c-0.027-0.746-1.238-1.996-1.996-2.07C201.251,140.346,198.567,140.506,195.399,140.506z
	 M93.173,243.662H93.2v24.845c0,1.534-0.117,3.055,2.211,2.98c2.422-0.075,1.988-1.817,1.988-3.207
	c0.035-16.164,0.035-32.329,0.02-48.489c0-1.539,0.355-3.351-2.239-3.269c-2.418,0.074-1.984,1.785-1.992,3.195
	C93.157,227.698,93.173,235.682,93.173,243.662z M72.942,150.967h0.016c0-0.695,0-1.394,0-2.09c-0.012-8.754-0.008-8.699-8.75-8.406
	c-1.852,0.063-2.442,0.742-2.434,2.473c0.027,5.277,0.024,10.558-0.07,15.84c-0.031,1.742,0.722,2.273,2.328,2.218
	c2.09-0.074,4.187-0.117,6.273-0.008c1.899,0.098,2.743-0.574,2.66-2.55C72.86,155.955,72.942,153.459,72.942,150.967z
	 M59.122,137.034c0.511-23.516,10.16-42.856,26.207-60.278c-15.985,9.238-35.008,46.164-31.516,60.535
	C55.481,137.213,57.219,137.127,59.122,137.034z M75.723,140.596v20.316c4.453,0,8.637,0.09,12.813-0.086
	c0.715-0.031,1.965-1.164,1.984-1.82c0.164-5.578,0.145-11.164,0.028-16.746c-0.012-0.566-1.02-1.57-1.59-1.59
	C84.603,140.537,80.243,140.596,75.723,140.596z M178.013,140.748c0,6.364-0.027,12.524,0.051,18.68
	c0.008,0.484,0.746,1.363,1.16,1.371c4.441,0.102,8.887,0.063,13.383,0.063v-20.114H178.013z M175.524,140.608
	c-5.707,0-10.891-0.071-16.07,0.09c-0.645,0.019-1.766,1.246-1.785,1.937c-0.148,5.395-0.148,10.801,0.004,16.195
	c0.02,0.711,1.129,1.965,1.766,1.989c4.793,0.168,9.598,0.144,14.395,0.019c0.578-0.012,1.609-0.984,1.617-1.527
	C175.567,153.233,175.524,147.151,175.524,140.608z M111.38,150.881c0-2.492-0.094-4.992,0.031-7.48
	c0.101-2.008-0.504-2.895-2.676-2.832c-4.285,0.129-8.582,0.109-12.871-0.004c-1.938-0.051-2.672,0.621-2.649,2.566
	c0.067,5.086,0.032,10.18-0.023,15.266c-0.023,1.703,0.5,2.578,2.383,2.543c4.488-0.082,8.984-0.094,13.473-0.012
	c1.91,0.031,2.394-0.867,2.343-2.562C111.317,155.873,111.372,153.377,111.38,150.881z M64.153,214.983
	c2.316,0,4.297-0.094,6.266,0.027c2.004,0.121,2.586-0.77,2.554-2.652c-0.078-4.684-0.015-9.375-0.015-14.063
	c0-8.081,0.039-16.163-0.075-24.242c-0.011-0.937-0.781-2.602-1.355-2.672c-2.406-0.305-4.871-0.129-7.375-0.129V214.983z
	 M155.188,140.631c-6.207,0-11.887-0.078-17.559,0.098c-0.707,0.019-1.945,1.359-1.969,2.117
	c-0.172,5.285-0.172,10.586,0.004,15.871c0.027,0.777,1.277,2.145,1.996,2.168c5.188,0.176,10.383,0.137,15.574-0.008
	c0.664-0.019,1.855-1.027,1.867-1.597C155.239,153.213,155.188,147.139,155.188,140.631z M133.427,150.717
	c0-2.496-0.062-4.992,0.02-7.484c0.062-1.883-0.602-2.684-2.594-2.641c-4.89,0.106-9.781,0.094-14.672,0.008
	c-1.812-0.035-2.476,0.601-2.453,2.414c0.067,5.187,0.047,10.379-0.008,15.566c-0.015,1.614,0.512,2.368,2.231,2.352
	c4.988-0.039,9.98-0.012,14.969,0.062c1.789,0.024,2.543-0.73,2.512-2.492C133.384,155.909,133.419,153.311,133.427,150.717z
	 M64.212,271.221c1.546,0.069,2.91,0.176,4.277,0.184c4.445,0.015,4.457,0.004,4.461-4.329c0.008-12.976,0.008-25.953,0.008-38.929
	c0-3.196,0.097-6.399-0.098-9.582c-0.051-0.778-1.012-2.059-1.672-2.137c-2.234-0.27-4.523-0.105-6.976-0.105V271.221z
	 M111.376,171.319c-2.938,0-5.535,0.172-8.098-0.043c-2.781-0.239-3.598,0.789-3.563,3.535c0.137,10.683,0.059,21.367,0.059,32.055
	c0,9.059,0,9.059,9.078,8.468c0.199-0.011,0.481,0.067,0.586-0.039c0.668-0.647,1.852-1.336,1.856-2.015
	C111.403,199.401,111.376,185.526,111.376,171.319z M167.829,69.483c3.832,4.847,8.129,9.406,11.41,14.605
	c8.91,14.113,14.652,29.399,15.844,46.246c0.516,7.278,0.766,7.207,8.25,6.809c1.832-0.094,2.543-0.781,2.352-2.547
	c-0.371-3.371-0.418-6.809-1.129-10.102c-3.289-15.222-10.281-28.703-20.051-40.718C179.845,78.049,174.313,73.17,167.829,69.483z
	 M102.301,67.854c-1.312,0.691-1.925,0.984-2.511,1.328c-0.692,0.402-1.387,0.805-2.02,1.285
	c-19.957,15.172-31.64,35.242-35.351,59.973c-1,6.664-0.883,6.683,5.675,6.644c0.5,0,1.008-0.07,1.497-0.004
	c2.593,0.344,3.449-0.73,3.476-3.355c0.109-10.391,2.266-20.434,6.277-29.984c2.184-5.192,4.899-10.176,7.621-15.118
	c2.208-4.004,4.575-7.953,7.254-11.648C96.426,73.94,99.196,71.315,102.301,67.854z M208.638,223.03c0,6.996,0,13.988,0,20.98
	c0.004,11.387,0.031,22.776-0.023,34.164c-0.008,1.98,0.27,3.23,2.707,3.188c2.586-0.043,2.199-1.754,2.199-3.309
	c0.016-36.763,0.016-73.523,0.023-110.285c0-0.399-0.039-0.801-0.008-1.199c0.129-1.719-0.746-2.153-2.348-2.246
	c-2.629-0.157-2.559,1.441-2.559,3.265C208.653,186.069,208.646,204.549,208.638,223.03z M111.376,271.487v-3.672
	c0.004-14.387,0.007-28.771,0.015-43.153c0-8.229,0-8.117-8.109-8.214c-2.777-0.032-3.578,0.878-3.559,3.586
	c0.106,15.98,0.059,31.96,0.067,47.941c0,0.5-0.172,1.137,0.066,1.473c0.539,0.757,1.246,1.898,1.953,1.949
	C104.864,271.608,107.942,271.487,111.376,271.487z M75.45,171.291c0,14.25,0.015,28.016-0.02,41.782
	c-0.004,1.703,0.938,1.961,2.285,1.957c3.493-0.004,6.989-0.023,10.481,0.054c1.816,0.043,2.48-0.754,2.445-2.511
	c-0.062-3.293-0.004-6.586-0.004-9.883c0-9.481,0.004-18.965-0.007-28.446c-0.004-1.378,0.234-2.96-1.934-2.957
	C84.426,171.295,80.157,171.291,75.45,171.291z M57.778,273.565c0.547-2.903,1.297-5.125,1.328-7.356
	c0.137-9.586,0.008-19.179,0.082-28.769c0.07-9.399-0.156-18.793-0.047-28.192c0.125-10.987,0.094-21.976-0.031-32.964
	c-0.023-2.2-0.773-4.395-1.187-6.59c-0.567-0.344-0.122-0.637,0.054-1.043c0.438-1.004,1.117-2.114,0.973-3.071
	c-0.078-0.519-1.609-0.984-2.547-1.175c-2.672-0.547-3.367,0.73-3.359,3.312c0.082,23.676,0.047,47.352,0.05,71.027
	c0,13.286-0.015,26.571,0.09,39.856c0.008,0.897,0.922,2.504,1.489,2.535c1.437,0.082,3.429-0.078,4.253-0.992
	C60.215,278.708,58.864,274.471,57.778,273.565z M153.712,64.221c5.168,5.59,9.254,11.813,12.352,18.688
	c7.355,16.296,11.477,33.355,11.777,51.265c0.035,2.274,0.844,2.973,3,2.867c2.691-0.125,5.41-0.179,8.086,0.055
	c2.93,0.25,3.809-0.793,3.602-3.715c-1.523-21.523-9.309-40.519-23.105-56.996C165.138,71.264,159.888,67.076,153.712,64.221z
	 M114.896,64.08c-6.703,3.047-12.144,7.793-16.926,13.301c-8.254,9.504-13.91,20.559-17.519,32.473
	c-2.328,7.676-3.238,15.777-4.754,23.695c-0.473,2.449,0.23,3.774,3.098,3.527c2.679-0.226,5.39-0.054,8.089-0.074
	c3.864-0.027,3.774-0.039,4.043-4.043c0.344-5.078,0.469-10.207,1.344-15.199C95.7,98.198,101.161,79.44,114.896,64.08z
	 M75.833,216.549c-0.16,0.495-0.325,0.77-0.325,1.047c-0.023,17.262-0.019,34.522-0.062,51.785
	c-0.004,1.605,0.734,2.066,2.184,2.055c3.293-0.024,6.589-0.082,9.875,0.078c2.312,0.112,3.203-0.672,3.16-3.063
	c-0.121-6.183-0.032-12.371-0.032-18.558c0.004-10.078,0.047-20.156-0.054-30.234c-0.012-1.043-0.867-2.941-1.41-2.973
	C84.723,216.444,80.258,216.549,75.833,216.549z M143.649,61.534c0.539,1.457,0.773,2.078,1,2.703
	c2.121,5.789,4.727,11.457,6.266,17.398c4.426,17.07,6.324,34.52,6.566,52.141c0.031,2.422,0.664,3.379,3.195,3.265
	c3.887-0.179,7.797-0.183,11.68,0.008c2.633,0.129,3.352-0.957,3.031-3.34c-0.984-7.308-1.43-14.726-2.984-21.906
	c-3.168-14.605-7.773-28.73-17.188-40.742C152.271,67.299,148.931,63.932,143.649,61.534z M124.786,61.846
	c-0.977,0.406-1.985,0.563-2.617,1.133c-3.094,2.801-6.461,5.41-9.055,8.633c-7.988,9.925-12.07,21.742-15.375,33.843
	c-2.563,9.371-4.27,18.883-4.418,28.645c-0.031,2.223,0.621,3.016,2.871,2.922c3.691-0.153,7.399-0.039,11.094-0.047
	c4.113-0.012,4.082-0.016,4.148-4.027c0.301-18.348,2.473-36.465,7.312-54.18C120.286,73.147,122.653,67.748,124.786,61.846z
	 M135.771,62.401c-0.074,0.758-0.234,1.633-0.234,2.508c-0.008,23.097,0.031,46.195-0.023,69.292
	c-0.008,2.313,0.91,2.903,3.027,2.852c4.496-0.109,9-0.16,13.496,0.004c2.496,0.094,3.238-0.742,3.184-3.231
	c-0.395-17.449-2.434-34.703-6.789-51.593c-1.508-5.844-4.164-11.41-6.52-17.008C140.884,62.784,139.063,61.069,135.771,62.401z
	 M133.255,62.432c-2.859-1.168-4.699-0.191-5.917,2.129c-1.204,2.293-2.516,4.562-3.399,6.984
	c-7.39,20.324-9.597,41.496-10.176,62.938c-0.054,2.043,0.797,2.551,2.653,2.519c4.394-0.078,8.797-0.179,13.179,0.067
	c3.008,0.168,3.93-0.762,3.918-3.832c-0.109-22.469-0.035-44.938-0.035-67.407C133.478,64.659,133.325,63.487,133.255,62.432z
	 M195.396,164.444v4.773c0.004,35.067,0.004,70.133,0.004,105.203c0.004,6.664,0.008,6.664,6.605,6.673
	c4.066,0.008,4.078,0.008,4.078-4.099c0.008-36.265,0.012-72.535,0.012-108.8c0-0.7,0.191-1.496-0.078-2.071
	c-0.309-0.664-1.008-1.574-1.582-1.605C201.575,164.354,198.7,164.444,195.396,164.444z M177.97,164.608v3.808
	c-0.004,12.598-0.008,25.192-0.008,37.789c0,23.595,0.004,47.192,0.008,70.786c0.004,3.996,0.012,4,4.129,4.02
	c2.496,0.016,5.012-0.145,7.492,0.069c2.723,0.235,3.336-0.882,3.332-3.44c-0.066-36.488-0.035-72.98-0.039-109.473
	c0-1.152-0.113-2.308-0.176-3.558C187.743,164.608,183.161,164.608,177.97,164.608z M157.575,164.682v3.797
	c-0.004,12.586-0.008,25.176-0.008,37.765c0,23.478,0.004,46.954,0.008,70.435c0.004,4.301,0.012,4.301,4.434,4.309
	c3.297,0.007,6.605-0.168,9.887,0.062c2.848,0.202,3.719-0.673,3.711-3.621c-0.094-36.367-0.051-72.734-0.059-109.103
	c0-1.167-0.094-2.332-0.152-3.644H157.575z M135.79,164.725c-0.086,1.488-0.23,2.855-0.23,4.226
	c-0.02,27.099-0.023,54.192-0.023,81.29c0,9.199,0.09,18.398-0.027,27.593c-0.031,2.532,0.852,3.313,3.293,3.224
	c4.191-0.148,8.402-0.207,12.594,0.008c2.922,0.147,3.906-0.637,3.895-3.785c-0.117-36.293-0.074-72.59-0.074-108.887v-3.668H135.79
	z M133.173,164.549c-5.532,0-10.816,0.141-16.089-0.058c-2.618-0.102-3.442,0.632-3.414,3.312
	c0.129,12.699,0.046,25.398,0.046,38.094c0.004,23.894,0.047,47.793-0.031,71.687c-0.008,2.535,0.571,3.591,3.317,3.45
	c4.187-0.215,8.406-0.223,12.589,0.035c3.047,0.188,3.902-0.812,3.895-3.856c-0.094-36.293-0.055-72.586-0.062-108.878
	C133.419,167.162,133.274,165.994,133.173,164.549z M220.485,139.412c-1.652,2.504-1.648,20.098,0.016,22.684
	c-0.406,2.207-0.98,3.867-0.984,5.527c-0.051,36.796-0.051,73.598-0.004,110.399c0.004,1.562,0.594,3.125,1.016,5.211
	c-2.219,2.89-2.051,7.519-0.672,10.468c1.723,3.696,1.5,7.215,2.07,10.821c0.09,0.578,0.227,1.272,0.602,1.672
	c3.547,3.742,2.316,8.449,2.625,12.828c0.137,1.91-1.18,2.656-2.863,2.738c-6.887,0.327-13.773,0.871-20.66,0.862
	c-50.895-0.058-101.792-0.198-152.688-0.397c-7.703-0.031-7.695-0.242-7.359-7.853c0.129-2.914,0.527-5.558,2.343-8.155
	c1.106-1.578,0.594-4.227,1.043-6.349c0.348-1.664,1.289-3.214,1.555-4.882c0.402-2.508,0.59-5.078,0.578-7.618
	c-0.004-1.468-0.578-2.933-0.847-4.179c0.312-2.141,0.867-4.196,0.871-6.25c0.05-36.399,0.05-72.797,0-109.199
	c0-1.653-0.559-3.309-0.715-4.157c1.129-8.707,1.226-16.679-0.078-25.375c0.222-0.945,0.937-2.675,0.992-4.425
	c0.437-13.442,5.523-25.274,12.543-36.407c7.465-11.84,16.945-21.722,28.996-29c1.875-1.133,3.887-2.051,5.773-3.172
	c3.813-2.257,8.012-3.632,11.672-6.429c3.098-2.364,7.508-3.004,11.684-4.535c-0.902-0.266-1.656-0.512-2.422-0.707
	c-6.801-1.704-8.949-7.231-5.063-13.059c2.696-4.039,6.571-6.598,10.731-8.914c1.418-0.785,2.773-2.164,3.508-3.606
	c2.031-3.98,5.312-6.496,9.094-6.195c4.328,0.344,6.66,3.176,8.246,6.906c0.574,1.348,1.289,2.657,2.102,3.875
	c2.055,3.09,1.629,6.164-0.277,8.989c-1.59,2.347-3.609,4.41-5.617,6.812c1.07,0.414,1.953,0.754,3.031,1.168
	c-0.496,3.18,1.73,3.824,4.234,4.414c3.598,0.844,7.234,1.656,10.684,2.934c2.25,0.836,4.172,2.523,6.297,3.738
	c1.195,0.68,2.492,1.18,3.75,1.746c26.219,11.828,43.016,31.875,51.285,59.192c1.168,3.863,1.121,8.089,1.719,12.136
	C219.552,135.42,220.005,137.143,220.485,139.412z"/>
<path fill-rule="evenodd" clip-rule="evenodd" fill="#FFFFFF" d="M123.805,33.26c1.426,4.274,5.282,6.633,4.657,11.297
	c-0.5,3.729-1.503,5.457-5.321,6.324c-0.289,0.067-0.586,0.129-0.883,0.168c-3.898,0.5-8.183-1.07-9.335-3.418
	c-1.278-2.597-0.125-6.254,3.335-9.187C118.485,36.553,121.083,35.1,123.805,33.26z"/>
<path fill-rule="evenodd" clip-rule="evenodd" d="M137.653,138.998h-23.504c0-0.355,0-0.707,0-1.054h23.504
	C137.653,138.291,137.653,138.643,137.653,138.998z"/>
<path fill-rule="evenodd" clip-rule="evenodd" d="M137.524,283.217h-21.687c0-0.427,0-0.855,0-1.285h21.683
	C137.521,282.362,137.521,282.791,137.524,283.217z"/>
<path fill-rule="evenodd" clip-rule="evenodd" d="M116.387,161.842h21.739v1.043h-21.739
	C116.387,162.541,116.387,162.19,116.387,161.842z"/>
<path fill-rule="evenodd" clip-rule="evenodd" d="M134.013,103.608V85.537c0.355-0.003,0.711-0.003,1.062-0.003v18.074
	C134.724,103.608,134.372,103.608,134.013,103.608z"/>
<path fill-rule="evenodd" clip-rule="evenodd" fill="#FFFFFF" d="M134.415,26.397c-0.66,0.39-1.316,1.066-1.98,1.074
	c-0.402,0.004-1.258-1.18-1.129-1.555c0.227-0.648,1.008-1.382,1.664-1.507c0.609-0.122,1.363,0.503,2.055,0.804
	C134.821,25.608,134.618,26.002,134.415,26.397z"/>
</svg>
